HIERARCHY
ROOT Hips
{
	OFFSET 0.000000 0.000000 0.000000 
	CHANNELS 6 Xposition Yposition Zposition Yrotation Zrotation Xrotation 
	JOINT Lumbar
	{
		OFFSET 0.000000 0.000000 0.000000 
		CHANNELS 3 Zrotation Xrotation Yrotation
		JOINT Neck
		{
			OFFSET 0.000000 0.445665 0.000000 
			CHANNELS 3 Zrotation Xrotation Yrotation
			End Site
			{
				OFFSET 0.000000 0.227535 0.000000 
			}
		}
		JOINT RightShoulder
		{
			OFFSET 0.019635 0.377685 0.194865 
			CHANNELS 3 Zrotation Xrotation Yrotation
			JOINT RightElbow
			{
				OFFSET 0.000000 -0.243375 0.000000 
				CHANNELS 2 Zrotation Yrotation
				JOINT RightWrist
				{
					OFFSET 0.000000 -0.264825 0.000000 
					CHANNELS 2 Zrotation Xrotation
					End Site
					{
						OFFSET 0.006600 -0.176220 0.000990 
					}
				}
			}
		}
		JOINT LeftShoulder
		{
			OFFSET 0.019635 0.377685 -0.194865 
			CHANNELS 3 Zrotation Xrotation Yrotation
			JOINT LeftElbow
			{
				OFFSET 0.000000 -0.243375 0.000000 
				CHANNELS 2 Zrotation Yrotation
				JOINT LeftWrist
				{
					OFFSET 0.000000 -0.264825 0.000000 
					CHANNELS 2 Zrotation Xrotation
					End Site
					{
						OFFSET 0.006600 -0.176220 -0.000990 
					}
				}
			}
		}
	}
	JOINT RightHip
	{
		OFFSET 0.052140 -0.069960 0.075570 
		CHANNELS 3 Zrotation Xrotation Yrotation
		JOINT RightKnee
		{
			OFFSET 0.000000 -0.402270 0.000000 
			CHANNELS 1 Zrotation
			JOINT RightAnkle
			{
				OFFSET 0.000000 -0.404085 0.000000 
				CHANNELS 3 Zrotation Xrotation Yrotation
				End Site
				{
					OFFSET 0.204105 -0.089430 0.008415 
				}
			}
		}
	}
	JOINT LeftHip
	{
		OFFSET 0.052140 -0.069960 -0.075570 
		CHANNELS 3 Zrotation Xrotation Yrotation
		JOINT LeftKnee
		{
			OFFSET 0.000000 -0.402270 0.000000 
			CHANNELS 1 Zrotation
			JOINT LeftAnkle
			{
				OFFSET 0.000000 -0.404085 0.000000 
				CHANNELS 3 Zrotation Xrotation Yrotation
				End Site
				{
					OFFSET 0.204105 -0.089430 -0.008415 
				}
			}
		}
	}
}
MOTION
Frames: 27
Frame Time: 0.02
-0.35165 -0.02149 -1.13377 571.64894 -38.38168 -0.77452 35.50627 0.74041 -2.2538 -20.69612 14.48539 -2.11985 166.38694 -171.25707 -87.14688 134.3013 127.78452 -75.22933 -21.88674 -29.13391 13.60835 -0.65713 51.37623 -65.37933 -18.43556 -0.85828 46.46206 5.9313 -15.0398 -26.38823 -7.95853 -1.86231 -3.19541 36.89884 21.4676 -5.49127 -45.40197 -11.25768 -1.07237 1.9139
-0.35974 -0.0219 -1.13442 571.91081 -38.276 -0.63763 35.4102 0.83798 -1.80702 -20.74798 14.37987 -2.11985 166.38693 -171.25706 -87.14687 134.3013 127.55285 -75.22932 -21.88661 -29.4333 13.33216 -0.02056 51.32156 -61.46945 -19.43753 -1.52551 45.36944 6.22363 -15.43795 -25.55516 -7.90196 -1.82792 -3.17802 38.68335 21.62997 -6.09178 -48.05507 -11.59446 -1.08775 1.91823
-0.36706 -0.02227 -1.1349 572.08533 -38.12844 -0.50465 35.24545 0.92422 -1.27534 -20.86519 14.304 -2.11985 166.38693 -171.25705 -87.14687 134.3013 127.22333 -75.22929 -21.8864 -29.72634 13.02886 0.64612 51.38107 -56.68059 -20.64307 -2.34616 44.25064 6.49062 -15.82392 -24.68462 -7.85371 -1.7757 -3.15346 40.42141 21.70754 -6.47181 -50.56121 -11.83639 -1.05781 1.94129
-0.37469 -0.02264 -1.13542 572.29917 -38.00951 -0.36652 35.12077 1.01434 -0.78809 -20.95108 14.20151 -2.11985 166.38692 -171.25704 -87.14687 134.3013 126.93523 -75.22928 -21.88623 -30.02177 12.74669 1.2783 51.38167 -52.57435 -21.66376 -3.05362 43.15802 6.76314 -16.20811 -23.83239 -7.80218 -1.73217 -3.13238 42.16132 21.80186 -6.95907 -53.05091 -12.10909 -1.04171 1.95872
-0.38249 -0.02305 -1.13608 572.51293 -37.85165 -0.24276 34.9591 1.11055 -0.27208 -21.04224 14.15327 -2.11985 166.38692 -171.25702 -87.14686 134.3013 126.65872 -75.22926 -21.88604 -30.31895 12.42821 1.99604 51.4151 -47.29274 -23.0674 -3.94145 42.0017 7.06274 -16.62053 -22.96266 -7.74892 -1.68605 -3.1103 44.00503 21.98373 -7.43002 -55.92477 -12.43605 -1.05253 1.9648
-0.38974 -0.02338 -1.13642 572.70755 -37.76415 -0.09015 34.85765 1.19144 0.20168 -21.13844 13.99909 -2.11985 166.38691 -171.25701 -87.14686 134.3013 126.3359 -75.22924 -21.88587 -30.60998 12.17855 2.54458 51.405 -44.22218 -23.73111 -4.49451 40.97384 7.29891 -16.97316 -22.12668 -7.70099 -1.64119 -3.08866 45.60937 21.96709 -7.87308 -57.9395 -12.62783 -0.99884 1.99786
-0.39567 -0.0235 -1.136 572.86118 -37.88359 0.14551 34.9438 1.2287 0.54932 -21.23397 13.55117 -2.11985 166.38691 -171.25702 -87.14686 134.3013 125.90218 -75.22923 -21.88577 -30.89952 12.126 2.60632 51.26033 -47.73054 -22.21781 -4.04478 40.29932 7.37012 -17.15127 -21.37451 -7.66706 -1.60362 -3.06983 46.60574 21.39473 -8.33947 -57.75637 -12.45586 -0.76418 2.10723
-0.40106 -0.02355 -1.13526 573.00072 -38.07475 0.40981 35.09213 1.25156 0.84882 -21.33236 12.99506 -2.11985 166.38691 -171.25702 -87.14686 134.3013 125.42672 -75.22922 -21.88569 -31.18068 12.14345 2.49919 51.06557 -53.44793 -19.96806 -3.2602 39.75718 7.37757 -17.27126 -20.66296 -7.63792 -1.56819 -3.05179 47.35169 20.63105 -8.77049 -56.68375 -12.15407 -0.47366 2.23951
-0.40667 -0.02366 -1.13465 573.1527 -38.2312 0.65959 35.20893 1.28348 1.1627 -21.42864 12.48439 -2.11985 166.38691 -171.25702 -87.14686 134.3013 124.97494 -75.22921 -21.8856 -31.45684 12.12841 2.47751 50.88397 -57.98347 -18.1109 -2.65587 39.15941 7.4112 -17.42734 -19.9459 -7.60573 -1.532 -3.03343 48.18326 19.97384 -9.19243 -55.92633 -11.919 -0.21156 2.36017
-0.41236 -0.02365 -1.13413 573.275 -38.39476 0.91606 35.33688 1.30429 1.51185 -21.53027 11.98917 -2.11985 166.38692 -171.25703 -87.14686 134.3013 124.4995 -75.2292 -21.88549 -31.77013 12.11526 2.42005 50.74499 -63.23441 -16.01781 -1.93917 38.54 7.45515 -17.54576 -19.1709 -7.57759 -1.49372 -3.01441 49.13548 19.2313 -9.73368 -55.54526 -11.6443 0.08519 2.49649
-0.41776 -0.02387 -1.13332 573.45834 -38.56157 1.16486 35.45762 1.3451 1.77423 -21.62098 11.43733 -2.11985 166.38692 -171.25703 -87.14686 134.3013 124.06512 -75.22919 -21.88544 -32.00394 12.1152 2.39671 50.50628 -67.53772 -14.23678 -1.37402 37.99942 7.46356 -17.72441 -18.52897 -7.54194 -1.46123 -2.99738 49.77378 18.62206 -9.995 -54.16438 -11.4273 0.29704 2.59296
-0.42251 -0.02474 -1.13181 573.80196 -38.71574 1.39045 35.54037 1.44358 1.81468 -21.67703 10.7417 -2.11985 166.38692 -171.25704 -87.14686 134.3013 123.75144 -75.22921 -21.88561 -32.02264 12.13397 2.5079 49.98344 -68.63299 -13.51248 -1.31708 37.62754 7.38275 -18.12434 -18.22668 -7.48537 -1.43831 -2.98287 49.64016 18.4289 -9.718 -50.30314 -11.36009 0.48483 2.68358
-0.42697 -0.02585 -1.12999 574.21006 -38.87161 1.60631 35.61451 1.56293 1.76797 -21.72227 9.99553 -2.11985 166.38693 -171.25705 -87.14687 134.3013 123.48168 -75.22923 -21.88585 -31.96133 12.16373 2.65918 49.36568 -68.71209 -13.12396 -1.42201 37.33357 7.26962 -18.58035 -18.06056 -7.42089 -1.42221 -2.97086 49.19534 18.37641 -9.12246 -45.4614 -11.36308 0.54803 2.7152
-0.43154 -0.02686 -1.12827 574.59687 -39.02964 1.82357 35.69493 1.67352 1.75679 -21.77472 9.28116 -2.11985 166.38693 -171.25706 -87.14687 134.3013 123.19402 -75.22926 -21.88605 -31.93513 12.18861 2.79279 48.80408 -69.29444 -12.57081 -1.44693 37.01507 7.17596 -18.98274 -17.84395 -7.35927 -1.40706 -2.95964 48.86837 18.25961 -8.52174 -41.02035 -11.36213 0.515 2.69857
-0.43619 -0.02783 -1.12672 574.9496 -39.17801 2.05511 35.76786 1.78059 1.76098 -21.81796 8.52472 -2.11985 166.38693 -171.25707 -87.14687 134.3013 122.89562 -75.22928 -21.88629 -31.91368 12.21514 2.91872 48.18423 -69.77909 -12.04244 -1.48743 36.65566 7.06037 -19.49773 -17.58029 -7.30076 -1.37531 -2.94049 48.62326 18.139 -8.54008 -36.71286 -11.24069 1.10944 2.98942
-0.44061 -0.02894 -1.12475 575.38842 -39.34569 2.25355 35.85308 1.90008 1.71339 -21.87734 7.8466 -2.11985 166.38694 -171.25708 -87.14688 134.3013 122.63125 -75.2293 -21.88644 -31.86373 12.24029 3.07171 47.66578 -70.1963 -11.55236 -1.53834 36.39771 6.98298 -19.79746 -17.44685 -7.23404 -1.37919 -2.9382 48.14821 18.06059 -7.20967 -31.93716 -11.38588 0.39149 2.63837
-0.44448 -0.03039 -1.12181 576.05249 -39.56813 2.36886 35.97783 2.04914 1.54223 -21.98766 7.38677 -2.11985 166.38694 -171.25708 -87.14688 134.3013 122.44483 -75.2293 -21.88648 -31.75228 12.25587 3.29561 47.43389 -70.67307 -11.08464 -1.57917 36.40436 7.02472 -19.44358 -17.63665 -7.14479 -1.48466 -2.98409 47.01842 18.07968 -2.10975 -25.84665 -12.27092 -4.12454 0.42273
-0.44813 -0.03198 -1.11846 576.80015 -39.80898 2.45004 36.1142 2.20984 1.32304 -22.11401 7.01 -2.11985 166.38694 -171.25708 -87.14688 134.3013 122.29235 -75.22929 -21.8864 -31.61545 12.27008 3.54488 47.31059 -71.10563 -10.64822 -1.6265 36.50871 7.10518 -18.87901 -17.95336 -7.04787 -1.6249 -3.04647 45.68642 18.13462 4.30408 -19.37334 -13.41632 -9.91228 -2.41405
-0.45186 -0.0335 -1.11525 577.5078 -40.04018 2.54275 36.24275 2.36522 1.12672 -22.23037 6.60254 -2.11985 166.38694 -171.25708 -87.14688 134.3013 122.12801 -75.22928 -21.8863 -31.4918 12.28636 3.77971 47.14882 -71.55035 -10.2014 -1.67192 36.56587 7.1646 -18.44219 -18.21353 -6.95562 -1.74592 -3.09981 44.51214 18.16385 10.04719 -13.24997 -14.43255 -14.99258 -4.90059
-0.45565 -0.03504 -1.11223 578.22738 -40.27802 2.6516 36.3821 2.52204 0.92097 -22.3572 6.1634 -2.11985 166.38694 -171.25708 -87.14688 134.30131 121.95011 -75.22931 -21.88652 -31.35819 12.29623 4.02897 46.93808 -71.9982 -9.7479 -1.71802 36.63922 7.23778 -17.87595 -18.47289 -6.8581 -1.8813 -3.15965 43.05195 18.23709 16.15021 -6.34398 -15.50652 -20.65199 -7.68859
-0.45928 -0.03658 -1.10871 578.93967 -40.50497 2.71926 36.50136 2.67758 0.72707 -22.46688 5.81071 -2.11985 166.38694 -171.25707 -87.14688 134.3013 121.80799 -75.22926 -21.88606 -31.2406 12.31989 4.25259 46.85601 -72.43739 -9.31372 -1.76259 36.69899 7.29141 -17.52379 -18.76328 -6.76983 -1.99531 -3.21 42.13957 18.22605 21.7638 -0.9962 -16.50912 -25.3704 -9.97977
-0.46249 -0.03805 -1.10398 579.62369 -40.7089 2.67851 36.56595 2.83302 0.5571 -22.5191 5.676 -2.11985 166.38692 -171.25705 -87.14686 134.3013 121.75574 -75.22899 -21.8836 -31.17154 12.37342 4.40962 47.10565 -72.89288 -8.90918 -1.79927 36.71391 7.28538 -17.85526 -19.09964 -6.70908 -2.03869 -3.22871 42.8228 17.96647 26.11981 0.00121 -17.35662 -27.48974 -10.88538
-0.46554 -0.03951 -1.09874 580.29497 -40.89877 2.59843 36.60915 2.9853 0.40503 -22.55467 5.62559 -2.11985 166.3869 -171.25702 -87.14685 134.30129 121.73808 -75.22865 -21.88049 -31.12011 12.44198 4.53849 47.48043 -73.33254 -8.5271 -1.83493 36.70798 7.25729 -18.40188 -19.46399 -6.65795 -2.05988 -3.23754 44.05879 17.62098 29.86531 -0.59566 -18.10523 -28.56706 -11.24692
-0.46869 -0.04099 -1.09366 580.96355 -41.08786 2.53794 36.65988 3.13505 0.25864 -22.60198 5.53729 -2.11985 166.38689 -171.25699 -87.14683 134.30128 121.70497 -75.22836 -21.87778 -31.06243 12.50972 4.6724 47.79712 -73.77528 -8.14026 -1.8702 36.70077 7.23761 -18.82247 -19.82025 -6.60233 -2.09331 -3.25184 45.02251 17.31934 33.60796 -0.4988 -18.8269 -29.90768 -11.76213
-0.47173 -0.04241 -1.08887 581.6705 -41.30903 2.46761 36.72065 3.30275 0.05208 -22.63235 5.45073 -2.11985 166.38687 -171.25696 -87.14681 134.30127 121.67255 -75.22801 -21.87464 -30.99688 12.55373 4.83726 48.1249 -74.2662 -7.72069 -1.90473 36.74378 7.22815 -19.35365 -20.16059 -6.54676 -2.11903 -3.26266 46.07153 17.00071 38.5531 -0.26092 -19.85291 -32.14966 -12.67987
-0.47497 -0.04395 -1.08335 582.29396 -41.45835 2.41063 36.75481 3.43117 -0.02413 -22.69367 5.37866 -2.11985 166.38685 -171.25694 -87.1468 134.30126 121.64567 -75.22776 -21.87225 -30.95162 12.64861 4.93402 48.45514 -74.61233 -7.38802 -1.94632 36.67426 7.18907 -19.71004 -20.5402 -6.49369 -2.15487 -3.27808 47.07228 16.69411 40.86527 -0.6967 -20.22851 -32.28878 -12.63981
-0.47877 -0.04586 -1.07603 582.68496 -41.42515 2.3853 36.72495 3.46033 0.25447 -22.84591 5.33294 -2.11985 166.38685 -171.25694 -87.1468 134.30126 121.63233 -75.22774 -21.87208 -30.96353 12.89929 4.81921 48.78447 -74.93231 -7.16599 -1.95519 36.3143 7.09557 -19.51638 -21.01268 -6.44368 -2.22592 -3.30925 47.84518 16.46262 35.75647 -2.63993 -18.7405 -26.53471 -9.9295
